# xmcd
#
# Track frame offsets: 
#        150
#        15145
#        26590
#        47836
#        60972
#        72203
#        88417
#        102715
#        121765
#        139173
#
# Disc length: 2065 seconds
#
# Revision: 1
# Processed by: cddbd v1.5.2PL0 Copyright (c) Steve Scherf et al.
# Submitted via: ExactAudioCopyFreeDBPlugin 1.0
#
DISCID=80080f0a
DTITLE=Phil Alvin - UnSung Stories
DYEAR=1986
DGENRE=Blues
TTITLE0=Phil Alvin with the Dirty Dozen Brass Band - Someone Stole Gab
TTITLE0=riel's Horn
TTITLE1=Next Week Sometime
TTITLE2=Phil Alvin with Sun Ra and The Arkestra - Ballad of Smokey Joe
TTITLE3=Phil Alvin with the Jubilee Train Singers - Death in the Morni
TTITLE3=ng
TTITLE4=Phil Alvin with Sun Ra and The Arkestra - Old Man of the Mountai
TTITLE4=n
TTITLE5=Daddy Rollin' Stone
TTITLE6=Titanic Blues
TTITLE7=Phil Alvin with Sun Ra and The Arkestra - Brother, Can You Spare
TTITLE7=a Dime?
TTITLE8=Collins Cave
TTITLE9=Gangster's Blues
EXTD=
EXTT0=
EXTT1=
EXTT2=
EXTT3=
EXTT4=
EXTT5=
EXTT6=
EXTT7=
EXTT8=
EXTT9=
PLAYORDER=
